<?xml version="1.0" standalone="no"?>
<!DOCTYPE svg PUBLIC "-//W3C//DTD SVG 20010904//EN"
 "http://www.w3.org/TR/2001/REC-SVG-20010904/DTD/svg10.dtd">
<svg version="1.0" xmlns="http://www.w3.org/2000/svg"
 width="2000.000000pt" height="2000.000000pt" viewBox="0 0 2000.000000 2000.000000"
 preserveAspectRatio="xMidYMid meet">
<metadata>
Created by potrace 1.14, written by Peter Selinger 2001-2017
</metadata>
<g transform="translate(0.000000,2000.000000) scale(0.100000,-0.100000)"
fill="#000000" stroke="none">
<path d="M10320 16967 c-97 -30 -163 -65 -237 -124 -33 -26 -1035 -892 -2227
-1923 l-2167 -1875 -2102 -5 c-1993 -5 -2105 -6 -2162 -24 -270 -81 -454 -301
-485 -579 -8 -63 -10 -909 -8 -2677 3 -2456 4 -2588 21 -2645 74 -244 239
-410 482 -482 57 -17 178 -18 2123 -21 l2062 -2 2226 -1926 c1225 -1059 2248
-1941 2274 -1960 162 -117 383 -153 575 -94 110 34 191 85 280 174 86 87 128
154 167 271 l23 70 0 6655 0 6655 -27 76 c-74 208 -231 366 -428 431 -49 16
-96 22 -190 25 -108 2 -135 0 -200 -20z"/>
<path d="M12834 13725 c-229 -50 -402 -204 -490 -437 -26 -67 -28 -84 -28
-213 0 -126 3 -148 26 -213 15 -41 41 -98 60 -128 18 -30 578 -694 1245 -1475
667 -782 1213 -1423 1213 -1424 0 -2 -545 -642 -1211 -1422 -698 -818 -1227
-1446 -1249 -1483 -66 -112 -85 -185 -85 -335 0 -151 18 -223 87 -338 175
-298 554 -411 863 -258 44 22 101 57 127 78 26 21 563 642 1194 1381 631 738
1150 1342 1154 1342 3 0 511 -591 1127 -1313 617 -722 1155 -1345 1196 -1383
199 -186 488 -226 740 -104 275 134 423 457 347 755 -42 165 -10 124 -1315
1652 -665 779 -1211 1420 -1213 1424 -2 4 542 645 1208 1425 666 781 1227
1446 1246 1478 84 141 114 325 80 478 -94 424 -557 650 -941 459 -44 -22 -101
-57 -127 -78 -26 -21 -563 -642 -1194 -1380 -631 -739 -1150 -1343 -1154
-1343 -5 0 -514 593 -1133 1318 -619 725 -1155 1346 -1191 1379 -150 141 -378
203 -582 158z"/>
</g>
</svg>
